<?xml version="1.0" encoding="UTF-8" standalone="no"?>
<!DOCTYPE svg PUBLIC "-//W3C//DTD SVG 1.1//EN" "http://www.w3.org/Graphics/SVG/1.1/DTD/svg11.dtd">
<svg width="100%" height="100%" viewBox="0 0 8333 8333" version="1.1" xmlns="http://www.w3.org/2000/svg" xmlns:xlink="http://www.w3.org/1999/xlink" xml:space="preserve" xmlns:serif="http://www.serif.com/" style="fill-rule:evenodd;clip-rule:evenodd;stroke-linejoin:round;stroke-miterlimit:2;">
    <path id="Dark-Grey-Background" serif:id="Dark Grey Background" d="M4330.06,989.045C4328.35,988.265 4326.46,987.807 4324.46,987.748C3799.21,972.233 3369.55,1098.39 2976.15,1268.44C2973.88,1269.42 2971.9,1270.96 2970.39,1272.91C2970.39,1272.91 2883.9,1384.96 2865.26,1409.11C2865.26,1409.11 1875.81,1571.22 1875.81,1571.22C1875.25,1571.31 1874.69,1571.43 1874.14,1571.59C1732.11,1612.49 1582.23,1707.83 1459.95,1810.26C1456.87,1812.84 1454.99,1816.57 1454.76,1820.57L1445.54,1975.46C1048.44,2352.47 919.225,2902.33 966.766,3379.97C759.793,4345.85 797.114,5177.29 1214.38,6103.72C1214.99,6105.08 1215.81,6106.34 1216.8,6107.45C1306.68,6208.08 1396.94,6260.71 1486.83,6270.61C1577.26,6280.57 1667.91,6247.5 1758.35,6174.25C1759.41,6173.39 1760.35,6172.39 1761.13,6171.27C2091.79,5697.61 2222.56,5157.33 2274.16,4590.65C2293.93,4534.04 2335.44,4509.86 2382,4493.44C2607.55,4486.41 2817.22,4518.97 3002.94,4611.5C3002.98,4611.52 3003.03,4611.54 3003.08,4611.57C3106.22,4661.57 3180.66,4731.75 3201.48,4839.87C3316.91,5642.52 3470.39,6441.99 3734.39,7232.25C3734.43,7232.39 3734.48,7232.52 3734.53,7232.65C3873.98,7612.83 4109.84,7722.57 4244.83,7752.49C4280.55,7760.41 4346.97,7761.16 4382.8,7754.56C4518.44,7729.57 4754.07,7615.01 4893.61,7234.61C4893.66,7234.48 4893.7,7234.34 4893.75,7234.21C5157.75,6443.94 5311.22,5644.48 5426.66,4841.83C5447.47,4733.71 5521.92,4663.53 5625.06,4613.52C5625.11,4613.5 5625.15,4613.48 5625.2,4613.45C5810.92,4520.93 6020.59,4488.37 6246.13,4495.4C6292.7,4511.82 6334.21,4535.99 6353.98,4592.61C6405.58,5159.28 6536.35,5699.57 6867.01,6173.22C6867.79,6174.34 6868.73,6175.35 6869.79,6176.21C6960.23,6249.46 7050.88,6282.52 7141.31,6272.57C7231.19,6262.67 7321.45,6210.04 7411.34,6109.4C7412.33,6108.29 7413.15,6107.03 7413.76,6105.68C7831.03,5179.24 7868.35,4347.81 7661.37,3381.92C7708.91,2904.28 7579.7,2354.43 7182.59,1977.42C7182.59,1977.42 7173.38,1822.53 7173.38,1822.53C7173.15,1818.52 7171.27,1814.79 7168.19,1812.22C7045.91,1709.78 6896.03,1614.45 6754,1573.55C6753.45,1573.39 6752.89,1573.27 6752.32,1573.17L5762.88,1411.07C5762.88,1411.07 5657.75,1274.87 5657.75,1274.87C5656.24,1272.92 5654.26,1271.38 5651.99,1270.4C5265.19,1103.21 4843.35,978.441 4330.06,989.045Z" style="fill:rgb(92,92,92);"/>
    <path id="Grey-Shell" serif:id="Grey Shell" d="M973.193,3258.82C977.029,3259.1 980.287,3262.02 980.838,3265.98C1089.63,4048.11 1613.6,4359.23 2371.58,4477.41C2373.5,4477.71 2375.16,4478.64 2376.39,4479.96C2377.36,4479.61 2378.33,4479.27 2379.3,4478.94C2608.24,4471.54 2821.01,4504.57 3009.44,4598.44C3117.14,4650.66 3194.24,4724.48 3215.86,4837.46C3331.18,5639.36 3484.46,6438.1 3748.22,7227.63C3885,7600.52 4115.58,7708.91 4247.98,7738.26C4282.2,7745.84 4345.83,7746.54 4380.16,7740.21C4513.12,7715.72 4743.14,7602.48 4879.92,7229.59C5143.68,6440.06 5296.95,5641.32 5412.27,4839.42C5433.89,4726.44 5511,4652.62 5618.7,4600.4C5807.13,4506.53 6019.9,4473.5 6248.83,4480.89L6249.92,4481.27C6251.16,4479.27 6253.23,4477.8 6255.73,4477.41C7013.71,4359.23 7537.69,4048.11 7646.48,3265.98C7647.07,3261.72 7650.8,3258.66 7655.02,3258.8C7670.52,2814.19 7531.84,2326.37 7168.38,1984.05L7158.83,1823.39C7038.09,1722.25 6890.2,1627.95 6749.97,1587.56L5754.85,1424.53L5646.21,1283.78C5254.61,1114.52 4826.94,988.838 4304.11,1004.28L4324.03,1002.33C3801.2,986.881 3373.53,1112.56 2981.93,1281.83L2873.29,1422.57L1878.17,1585.61C1737.93,1625.99 1590.05,1720.3 1469.31,1821.44L1459.76,1982.09C1095.78,2324.89 957.228,2813.62 973.193,3258.82ZM7649.49,3351.82C7515.66,4075.7 7004.75,4374.14 6275.2,4491.2C6316,4509.35 6350.53,4536.9 6368.34,4589.54C6419.6,5154.3 6549.46,5692.86 6878.97,6164.88C7052.8,6305.68 7226.63,6294.32 7400.46,6099.69C7816.66,5175.62 7853.45,4346.37 7646.63,3382.75C7647.67,3372.47 7648.62,3362.16 7649.49,3351.82ZM979.681,3361.71C980.261,3368.12 980.867,3374.46 981.505,3380.79C774.684,4344.41 811.477,5173.66 1227.68,6097.73C1401.51,6292.36 1575.34,6303.72 1749.17,6162.92C2078.68,5690.91 2208.54,5152.34 2259.8,4587.58C2277.11,4536.41 2310.22,4508.95 2349.53,4490.79C1624.68,4373.97 1116.16,4077.56 979.681,3361.71ZM4315.29,4082.02C3878.4,4082.02 3523.7,4436.72 3523.7,4873.61C3523.7,5310.5 3878.4,5665.2 4315.29,5665.2C4752.19,5665.2 5106.89,5310.5 5106.89,4873.61C5106.89,4436.72 4752.19,4082.02 4315.29,4082.02ZM6117.01,3640.49C5952.95,3640.49 5819.74,3773.69 5819.74,3937.76C5819.74,4101.82 5952.95,4235.02 6117.01,4235.02C6281.08,4235.02 6414.28,4101.82 6414.28,3937.76C6414.28,3773.69 6281.08,3640.49 6117.01,3640.49ZM2116,2385.27C1696.46,2385.27 1355.74,2733.68 1355.74,3162.93C1355.74,3592.19 1696.46,3940.6 2116,3940.6C2535.55,3940.6 2876.27,3592.19 2876.27,3162.93C2876.27,2733.68 2535.55,2385.27 2116,2385.27ZM4310.49,3121.54C4138,3121.54 3997.96,3261.58 3997.96,3434.08C3997.96,3606.57 4138,3746.61 4310.49,3746.61C4482.99,3746.61 4623.03,3606.57 4623.03,3434.08C4623.03,3261.58 4482.99,3121.54 4310.49,3121.54ZM5621.52,3095.09C5457.45,3095.09 5324.25,3228.29 5324.25,3392.36C5324.25,3556.42 5457.45,3689.63 5621.52,3689.63C5785.59,3689.63 5918.79,3556.42 5918.79,3392.36C5918.79,3228.29 5785.59,3095.09 5621.52,3095.09ZM6829.33,2481.85C6789.61,2426.02 6724.38,2389.58 6650.7,2389.58C6574.92,2389.58 6508.08,2428.14 6468.74,2486.67C6330.94,2540.82 6221.35,2653.12 6168.96,2794.05C6099.88,2830.93 6052.82,2903.74 6052.82,2987.45C6052.82,3073.32 6102.33,3147.71 6174.33,3183.63C6227.37,3314.99 6330.64,3419.91 6459.65,3473.49C6497.22,3540.22 6568.73,3585.33 6650.7,3585.33C6730.64,3585.33 6800.64,3542.43 6838.9,3478.41C6975.77,3425.68 7085.2,3315.73 7139.07,3177.18C7204.51,3139.27 7248.58,3068.47 7248.58,2987.45C7248.58,2908.65 7206.89,2839.51 7144.38,2800.91C7091.49,2652.43 6975.39,2534.78 6829.33,2481.85ZM2847.02,1636.18C2846.74,1636.8 2846.67,1637.5 2846.82,1638.17L3127.54,2859.08C3127.91,2860.68 3129.45,2861.72 3131.07,2861.47C3132.69,2861.21 3133.84,2859.75 3133.7,2858.12L3004.48,1303.02C3004.37,1301.6 3003.3,1300.44 3001.9,1300.2C3000.5,1299.96 2999.11,1300.69 2998.52,1301.99L2847.02,1636.18ZM5771.78,1638.17C5771.93,1637.5 5771.86,1636.8 5771.58,1636.18L5620.08,1301.99C5619.49,1300.69 5618.1,1299.96 5616.7,1300.2C5615.3,1300.44 5614.24,1301.6 5614.12,1303.02L5484.9,2858.12C5484.76,2859.75 5485.91,2861.21 5487.53,2861.47C5489.15,2861.72 5490.69,2860.68 5491.06,2859.08L5771.78,1638.17ZM5742.75,1464.96L5739.76,1466.16L5739.41,1469.36L5789.6,1577.4L5792.37,1579.21C5792.37,1579.21 6108.18,1637.98 6247.54,1641.39C6615.49,1650.42 6928.39,1749.18 7150.33,1954.1C7151.28,1954.98 7152.66,1955.18 7153.82,1954.61C7154.98,1954.04 7155.67,1952.82 7155.56,1951.53L7146.23,1844.45C7146.16,1843.66 7145.79,1842.93 7145.21,1842.4C6974.02,1687.87 6675.86,1556.25 6183.68,1528.47C6144.81,1526.28 5742.75,1464.96 5742.75,1464.96ZM2887.07,1469.36L2886.72,1466.16L2883.72,1464.96C2883.72,1464.96 2481.66,1526.28 2442.79,1528.47C1950.62,1556.25 1652.46,1687.87 1481.27,1842.4C1480.68,1842.93 1480.32,1843.66 1480.25,1844.45L1470.92,1951.53C1470.8,1952.82 1471.49,1954.04 1472.65,1954.61C1473.81,1955.18 1475.2,1954.98 1476.15,1954.1C1698.09,1749.18 2010.99,1650.42 2378.93,1641.39C2518.29,1637.98 2834.1,1579.21 2834.1,1579.21L2836.88,1577.4L2887.07,1469.36Z" style="fill:rgb(188,189,191);"/>
    <path id="Grey-D-Pad---C---Circles" serif:id="Grey D-Pad - C - Circles" d="M2116,2393.6C2531.01,2393.6 2867.93,2738.33 2867.93,3162.93C2867.93,3587.54 2531.01,3932.27 2116,3932.27C1701,3932.27 1364.08,3587.54 1364.08,3162.93C1364.08,2738.33 1701,2393.6 2116,2393.6ZM1883.29,2935.59L1613.65,2935.59C1564.82,2935.59 1525.17,2975.23 1525.17,3024.07L1525.17,3304C1525.17,3352.83 1564.82,3392.48 1613.65,3392.48C1613.65,3392.48 1883.29,3392.48 1883.29,3392.48C1883.29,3453.63 1883.29,3662.11 1883.29,3662.11C1883.29,3710.95 1922.93,3750.59 1971.77,3750.59L2251.7,3750.59C2300.53,3750.59 2340.18,3710.95 2340.18,3662.11C2340.18,3662.11 2340.18,3453.63 2340.18,3392.48C2340.18,3392.48 2609.81,3392.48 2609.81,3392.48C2658.64,3392.48 2698.29,3352.83 2698.29,3304C2698.29,3304 2698.29,3024.07 2698.29,3024.07C2698.29,2975.23 2658.64,2935.59 2609.81,2935.59L2340.18,2935.59C2340.18,2935.59 2340.18,2665.96 2340.18,2665.96C2340.18,2617.12 2300.53,2577.47 2251.7,2577.47L1971.77,2577.47C1922.93,2577.47 1883.29,2617.12 1883.29,2665.96C1883.29,2665.96 1883.29,2935.59 1883.29,2935.59ZM6837.2,2493.7C6972.85,2546.38 7080.96,2656.28 7133.11,2794.41C7102.25,2777.8 7066.96,2768.37 7029.49,2768.37C6908.57,2768.37 6810.4,2866.54 6810.4,2987.45C6810.4,3108.37 6908.57,3206.54 7029.49,3206.54C7064.76,3206.54 7098.1,3198.19 7127.62,3183.36C7074.71,3312.22 6972.59,3414.91 6845.32,3466.89C6860.95,3436.75 6869.79,3402.52 6869.79,3366.24C6869.79,3245.33 6771.62,3147.16 6650.7,3147.16C6529.78,3147.16 6431.61,3245.33 6431.61,3366.24C6431.61,3400.5 6439.49,3432.93 6453.53,3461.82C6333.61,3409.16 6237.31,3311.06 6185.5,3188.82C6212.02,3200.22 6241.24,3206.54 6271.91,3206.54C6392.83,3206.54 6491,3108.37 6491,2987.45C6491,2866.54 6392.83,2768.37 6271.91,2768.37C6239.08,2768.37 6207.93,2775.6 6179.98,2788.56C6231.32,2657.4 6333.28,2552.39 6461.19,2498.73C6442.39,2531.04 6431.61,2568.61 6431.61,2608.67C6431.61,2729.58 6529.78,2827.75 6650.7,2827.75C6771.62,2827.75 6869.79,2729.58 6869.79,2608.67C6869.79,2566.51 6857.86,2527.13 6837.2,2493.7Z" style="fill:rgb(158,156,161);"/>
    <path id="Dark-Grey-D-Pad---C" serif:id="Dark Grey D-Pad - C" d="M1899.95,2952.25L1613.65,2952.25C1574.02,2952.25 1541.84,2984.43 1541.84,3024.07L1541.84,3304C1541.84,3343.64 1574.02,3375.81 1613.65,3375.81L1899.95,3375.81L1899.95,3662.11C1899.95,3701.75 1932.13,3733.93 1971.77,3733.93L2251.7,3733.93C2291.33,3733.93 2323.51,3701.75 2323.51,3662.11L2323.51,3375.81L2609.81,3375.81C2649.45,3375.81 2681.63,3343.64 2681.63,3304L2681.63,3024.07C2681.63,2984.43 2649.45,2952.25 2609.81,2952.25L2323.51,2952.25L2323.51,2665.96C2323.51,2626.32 2291.33,2594.14 2251.7,2594.14L1971.77,2594.14C1932.13,2594.14 1899.95,2626.32 1899.95,2665.96L1899.95,2952.25ZM2884.23,1468.05C2884.23,1468.05 2481.87,1529.39 2442.97,1531.59C1951.81,1559.32 1654.2,1690.5 1483.36,1844.72L1474.03,1951.8C1696.48,1746.42 2010.06,1647.31 2378.86,1638.27C2518.22,1634.85 2834.04,1576.09 2834.04,1576.09L2884.23,1468.05ZM5742.24,1468.05C5742.24,1468.05 6144.61,1529.39 6183.51,1531.59C6674.67,1559.32 6972.27,1690.5 7143.11,1844.72L7152.45,1951.8C6929.99,1746.42 6616.41,1647.31 6247.62,1638.27C6108.26,1634.85 5792.43,1576.09 5792.43,1576.09L5742.24,1468.05Z" style="fill:rgb(86,87,91);"/>
    <path id="Grey-Shading" serif:id="Grey Shading" d="M2849.87,1637.47L3130.59,2858.38L3001.37,1303.28L2849.87,1637.47ZM5768.73,1637.47L5488.01,2858.38L5617.23,1303.28L5768.73,1637.47Z" style="fill:rgb(140,140,140);"/>
    <path id="Grey-Analog-Stick-Outer-Circle" serif:id="Grey Analog Stick Outer Circle" d="M4315.29,4090.35C4747.59,4090.35 5098.55,4441.32 5098.55,4873.61C5098.55,5305.9 4747.59,5656.87 4315.29,5656.87C3883,5656.87 3532.04,5305.9 3532.04,4873.61C3532.04,4441.32 3883,4090.35 4315.29,4090.35ZM4315.29,4462.58C4088.44,4462.58 3904.26,4646.75 3904.26,4873.61C3904.26,5100.46 4088.44,5284.64 4315.29,5284.64C4542.15,5284.64 4726.32,5100.46 4726.32,4873.61C4726.32,4646.75 4542.15,4462.58 4315.29,4462.58Z" style="fill:rgb(109,114,120);"/>
    <g id="Light-Grey-Analog-Stick" serif:id="Light Grey Analog Stick" transform="matrix(0.482213,0,0,0.482213,2248.45,2492.01)">
        <circle cx="4286.16" cy="4938.88" r="783.258" style="fill:rgb(225,228,237);"/>
    </g>
    <path id="Yellow-Buttons" serif:id="Yellow Buttons" d="M6650.7,3155.49C6767.02,3155.49 6861.46,3249.93 6861.46,3366.24C6861.46,3482.56 6767.02,3577 6650.7,3577C6534.38,3577 6439.95,3482.56 6439.95,3366.24C6439.95,3249.93 6534.38,3155.49 6650.7,3155.49ZM6650.7,2397.91C6767.02,2397.91 6861.46,2492.35 6861.46,2608.67C6861.46,2724.99 6767.02,2819.42 6650.7,2819.42C6534.38,2819.42 6439.95,2724.99 6439.95,2608.67C6439.95,2492.35 6534.38,2397.91 6650.7,2397.91ZM6818.74,2987.45C6818.74,2871.14 6913.17,2776.7 7029.49,2776.7C7145.81,2776.7 7240.25,2871.14 7240.25,2987.45C7240.25,3103.77 7145.81,3198.21 7029.49,3198.21C6913.17,3198.21 6818.74,3103.77 6818.74,2987.45ZM6061.16,2987.45C6061.16,2871.14 6155.6,2776.7 6271.91,2776.7C6388.23,2776.7 6482.67,2871.14 6482.67,2987.45C6482.67,3103.77 6388.23,3198.21 6271.91,3198.21C6155.6,3198.21 6061.16,3103.77 6061.16,2987.45Z" style="fill:rgb(255,220,31);"/>
    <g id="Green-Button" serif:id="Green Button" transform="matrix(1,0,0,1,0,-14.2588)">
        <circle cx="5621.52" cy="3406.62" r="288.935" style="fill:rgb(12,199,123);"/>
    </g>
    <g id="Blue-Button" serif:id="Blue Button" transform="matrix(1,0,0,1,495.493,531.14)">
        <circle cx="5621.52" cy="3406.62" r="288.935" style="fill:rgb(25,78,220);"/>
    </g>
    <g id="Red-Button" serif:id="Red Button" transform="matrix(1,0,0,1,49.9057,3.5647)">
        <circle cx="4260.59" cy="3430.51" r="295.87" style="fill:rgb(236,63,33);"/>
    </g>
</svg>
